<?xml version="1.0" encoding="UTF-8"?>
<!DOCTYPE svg PUBLIC "-//W3C//DTD SVG 1.1//EN" "http://www.w3.org/Graphics/SVG/1.1/DTD/svg11.dtd">
<svg xmlns="http://www.w3.org/2000/svg" version="1.1" width="90px" height="40px" style="shape-rendering:geometricPrecision; text-rendering:geometricPrecision; image-rendering:optimizeQuality; fill-rule:evenodd; clip-rule:evenodd" xmlns:xlink="http://www.w3.org/1999/xlink">
<g><path style="opacity:1" fill="#faf9f9" d="M -0.5,-0.5 C 29.5,-0.5 59.5,-0.5 89.5,-0.5C 89.5,12.8333 89.5,26.1667 89.5,39.5C 59.5,39.5 29.5,39.5 -0.5,39.5C -0.5,26.1667 -0.5,12.8333 -0.5,-0.5 Z"/></g>
<g><path style="opacity:1" fill="#090909" d="M 31.5,18.5 C 31.5,19.1667 31.5,19.8333 31.5,20.5C 29.9639,23.0922 27.6305,24.0922 24.5,23.5C 24.5,24.8333 24.5,26.1667 24.5,27.5C 23.1667,27.5 21.8333,27.5 20.5,27.5C 20.5,23.5 20.5,19.5 20.5,15.5C 23.5184,15.3354 26.5184,15.502 29.5,16C 30.3805,16.7083 31.0472,17.5416 31.5,18.5 Z"/></g>
<g><path style="opacity:1" fill="#ababab" d="M 33.5,15.5 C 33.5,19.5 33.5,23.5 33.5,27.5C 32.8333,25.1667 32.1667,22.8333 31.5,20.5C 31.5,19.8333 31.5,19.1667 31.5,18.5C 32.1667,17.5 32.8333,16.5 33.5,15.5 Z"/></g>
<g><path style="opacity:1" fill="#0e0e0e" d="M 33.5,15.5 C 36.5184,15.3354 39.5184,15.502 42.5,16C 44.9826,18.2638 44.9826,20.5972 42.5,23C 43.1476,24.4397 43.4809,25.9397 43.5,27.5C 40.6711,27.6751 39.0045,26.3418 38.5,23.5C 37.5713,24.6888 37.238,26.0222 37.5,27.5C 36.1667,27.5 34.8333,27.5 33.5,27.5C 33.5,23.5 33.5,19.5 33.5,15.5 Z"/></g>
<g><path style="opacity:1" fill="#121212" d="M 55.5,17.5 C 53.5,17.5 51.5,17.5 49.5,17.5C 49.5,18.5 49.5,19.5 49.5,20.5C 50.8333,20.5 52.1667,20.5 53.5,20.5C 52.8166,22.1765 51.4832,22.8432 49.5,22.5C 49.5,23.5 49.5,24.5 49.5,25.5C 51.604,25.2011 53.604,25.5344 55.5,26.5C 52.2317,27.487 48.8984,27.8204 45.5,27.5C 45.5,23.5 45.5,19.5 45.5,15.5C 49.3293,14.931 52.6627,15.5977 55.5,17.5 Z"/></g>
<g><path style="opacity:1" fill="#141414" d="M 59.5,15.5 C 61.8568,15.3367 64.1902,15.5034 66.5,16C 67.3567,16.6891 68.0233,17.5224 68.5,18.5C 66.2704,18.7078 64.1037,18.7078 62,18.5C 60.1867,24.6189 61.8533,26.2856 67,23.5C 67.5,23.8333 68,24.1667 68.5,24.5C 64.9955,29.7483 61.4955,29.7483 58,24.5C 57.068,21.1769 57.568,18.1769 59.5,15.5 Z"/></g>
<g><path style="opacity:1" fill="#000000" d="M 73.5,15.5 C 73.5,19.5 73.5,23.5 73.5,27.5C 72.5,27.5 71.5,27.5 70.5,27.5C 70.5,23.5 70.5,19.5 70.5,15.5C 71.5,15.5 72.5,15.5 73.5,15.5 Z"/></g>
<g><path style="opacity:1" fill="#5b5b5b" d="M 73.5,15.5 C 74.4849,19.6344 74.8182,23.9677 74.5,28.5C 72.901,28.7678 71.5676,28.4345 70.5,27.5C 71.5,27.5 72.5,27.5 73.5,27.5C 73.5,23.5 73.5,19.5 73.5,15.5 Z"/></g>
<g><path style="opacity:1" fill="#181818" d="M 77.5,15.5 C 80.3965,15.1253 83.0632,15.6253 85.5,17C 83.6329,17.9192 81.6329,18.4192 79.5,18.5C 81.4899,19.8732 83.6566,20.8732 86,21.5C 87.4708,26.0333 85.8042,28.3666 81,28.5C 78.8507,28.3417 77.0174,27.5084 75.5,26C 76.0253,25.3076 76.6919,24.8076 77.5,24.5C 79.198,25.6808 80.8647,25.6808 82.5,24.5C 76.577,23.3437 74.9103,20.3437 77.5,15.5 Z"/></g>
<g><path style="opacity:1" fill="#f36745" d="M 9.5,13.5 C 9.5,15.1667 9.5,16.8333 9.5,18.5C 7.27761,18.5587 6.27761,19.7253 6.5,22C 6.76924,23.6075 7.60258,24.7741 9,25.5C 10.0459,29.5471 9.21261,30.2138 6.5,27.5C 3.16667,28.8333 2.16667,27.8333 3.5,24.5C 2.67504,23.6143 1.67504,23.281 0.5,23.5C 0.70298,21.3618 1.70298,19.6951 3.5,18.5C 3.29069,17.914 2.95735,17.414 2.5,17C 4.85017,15.8249 7.18351,14.6582 9.5,13.5 Z"/></g>
<g><path style="opacity:1" fill="#848484" d="M 55.5,17.5 C 54.0484,18.3019 52.3817,18.8019 50.5,19C 51.7375,19.2321 52.7375,19.7321 53.5,20.5C 52.1667,20.5 50.8333,20.5 49.5,20.5C 49.5,19.5 49.5,18.5 49.5,17.5C 51.5,17.5 53.5,17.5 55.5,17.5 Z"/></g>
<g><path style="opacity:1" fill="#dbdbdb" d="M 24.5,17.5 C 25.5,17.5 26.5,17.5 27.5,17.5C 27.5,18.5 27.5,19.5 27.5,20.5C 26.5,20.5 25.5,20.5 24.5,20.5C 24.5,19.5 24.5,18.5 24.5,17.5 Z"/></g>
<g><path style="opacity:1" fill="#b3b3b3" d="M 36.5,17.5 C 38.3464,17.2222 39.6798,17.8888 40.5,19.5C 39.3112,20.4287 37.9778,20.762 36.5,20.5C 36.5,19.5 36.5,18.5 36.5,17.5 Z"/></g>
<g><path style="opacity:1" fill="#fee3cb" d="M 9.5,13.5 C 15.8229,13.9103 18.8229,17.4103 18.5,24C 18.7751,27.0603 17.4417,29.0603 14.5,30C 13.1667,30.6667 11.8333,30.6667 10.5,30C 12.0016,29.4169 13.3349,28.5836 14.5,27.5C 11.1579,26.007 9.4912,23.007 9.5,18.5C 9.5,16.8333 9.5,15.1667 9.5,13.5 Z"/></g>
</svg>
