<?xml version="1.0" encoding="UTF-8"?>
<!DOCTYPE svg PUBLIC "-//W3C//DTD SVG 1.1//EN" "http://www.w3.org/Graphics/SVG/1.1/DTD/svg11.dtd">
<svg xmlns="http://www.w3.org/2000/svg" version="1.1" width="300px" height="70px" style="shape-rendering:geometricPrecision; text-rendering:geometricPrecision; image-rendering:optimizeQuality; fill-rule:evenodd; clip-rule:evenodd" xmlns:xlink="http://www.w3.org/1999/xlink">
<g><path style="opacity:1" fill="#fdfcfc" d="M -0.5,-0.5 C 99.5,-0.5 199.5,-0.5 299.5,-0.5C 299.5,22.8333 299.5,46.1667 299.5,69.5C 199.5,69.5 99.5,69.5 -0.5,69.5C -0.5,46.1667 -0.5,22.8333 -0.5,-0.5 Z"/></g>
<g><path style="opacity:1" fill="#fff9f6" d="M 63.5,10.5 C 67.5,14.8333 67.5,19.1667 63.5,23.5C 61.665,22.8777 60.4983,21.5444 60,19.5C 60.0464,17.6874 59.8797,16.0207 59.5,14.5C 58.0328,19.2468 55.0328,20.5801 50.5,18.5C 49.4149,15.227 49.2483,11.8936 50,8.5C 52,5.83333 54,5.83333 56,8.5C 56.1953,10.2072 56.1953,11.8739 56,13.5C 57.995,11.253 60.495,10.253 63.5,10.5 Z"/></g>
<g><path style="opacity:1" fill="#f1573a" d="M 34.5,13.5 C 36.3342,17.5135 37.0008,21.8468 36.5,26.5C 33.835,31.1721 33.835,35.8387 36.5,40.5C 36.7744,45.263 36.441,49.9296 35.5,54.5C 33.3079,55.2752 31.3079,56.1086 29.5,57C 27.316,54.9835 25.316,52.8169 23.5,50.5C 28.548,43.6608 26.8813,39.9942 18.5,39.5C 18.5,35.8333 18.5,32.1667 18.5,28.5C 25.6319,27.5017 27.2986,23.835 23.5,17.5C 24.8045,14.3623 26.9712,12.029 30,10.5C 31.129,12.1412 32.629,13.1412 34.5,13.5 Z"/></g>
<g><path style="opacity:1" fill="#0b0b0b" d="M 205.5,12.5 C 213.461,11.0461 220.294,13.0461 226,18.5C 227.411,20.6504 228.245,22.9837 228.5,25.5C 224.774,25.8226 221.107,25.4892 217.5,24.5C 215.729,20.6691 212.729,19.5024 208.5,21C 207.874,21.7504 207.374,22.5838 207,23.5C 206.333,28.8333 206.333,34.1667 207,39.5C 209.21,42.2896 212.044,43.123 215.5,42C 217.611,40.2653 219.611,38.432 221.5,36.5C 223.782,37.2234 226.116,37.5567 228.5,37.5C 227.506,43.9952 223.839,48.1619 217.5,50C 199.935,51.4322 192.102,43.2655 194,25.5C 196.012,19.4251 199.845,15.0918 205.5,12.5 Z"/></g>
<g><path style="opacity:1" fill="#090909" d="M 258.5,12.5 C 263.913,12.2288 269.246,12.7288 274.5,14C 276.64,14.9733 278.307,16.4733 279.5,18.5C 277.476,20.3581 275.309,22.0248 273,23.5C 272.097,22.2986 270.931,21.4652 269.5,21C 266.518,20.502 263.518,20.3354 260.5,20.5C 260.238,21.9778 260.571,23.3112 261.5,24.5C 265.404,25.9762 269.404,27.1428 273.5,28C 281.505,31.8521 283.338,37.6854 279,45.5C 274.851,49.5498 269.851,51.2165 264,50.5C 257.526,51.1732 252.36,49.0065 248.5,44C 251.24,38.4446 254.573,37.7779 258.5,42C 262.957,44.3383 266.957,43.8383 270.5,40.5C 270.023,39.5224 269.357,38.6891 268.5,38C 263.236,37.1013 258.236,35.4346 253.5,33C 249.741,29.2566 248.574,24.7566 250,19.5C 252.441,16.5464 255.275,14.2131 258.5,12.5 Z"/></g>
<g><path style="opacity:1" fill="#f4703f" d="M 36.5,26.5 C 37.0008,21.8468 36.3342,17.5135 34.5,13.5C 39.6489,13.3489 41.9822,10.6822 41.5,5.5C 43.1667,5.5 44.8333,5.5 46.5,5.5C 46.5,11.1667 46.5,16.8333 46.5,22.5C 42.5933,22.4084 39.2599,23.7417 36.5,26.5 Z"/></g>
<g><path style="opacity:1" fill="#040404" d="M 85.5,12.5 C 92.8409,12.3337 100.174,12.5003 107.5,13C 116.194,14.6882 119.694,19.8549 118,28.5C 117.654,30.8477 116.487,32.6811 114.5,34C 108.798,35.9039 102.965,37.0706 97,37.5C 96.501,41.8206 96.3343,46.1539 96.5,50.5C 92.8333,50.5 89.1667,50.5 85.5,50.5C 85.5,37.8333 85.5,25.1667 85.5,12.5 Z"/></g>
<g><path style="opacity:1" fill="#0a0a0a" d="M 122.5,12.5 C 130.174,12.3336 137.841,12.5003 145.5,13C 153.716,13.9605 157.216,18.4605 156,26.5C 154.719,29.9416 152.553,32.6083 149.5,34.5C 152.086,39.6613 154.086,44.9947 155.5,50.5C 151.818,50.6653 148.152,50.4986 144.5,50C 142.476,45.5972 140.642,41.0972 139,36.5C 137.644,35.6198 136.144,35.2865 134.5,35.5C 134.5,40.5 134.5,45.5 134.5,50.5C 130.5,50.5 126.5,50.5 122.5,50.5C 122.5,37.8333 122.5,25.1667 122.5,12.5 Z"/></g>
<g><path style="opacity:1" fill="#040404" d="M 160.5,12.5 C 170.167,12.5 179.833,12.5 189.5,12.5C 189.5,15.1667 189.5,17.8333 189.5,20.5C 183.833,20.5 178.167,20.5 172.5,20.5C 172.5,22.8333 172.5,25.1667 172.5,27.5C 176.167,27.5 179.833,27.5 183.5,27.5C 183.5,30.1667 183.5,32.8333 183.5,35.5C 179.833,35.5 176.167,35.5 172.5,35.5C 172.5,37.8333 172.5,40.1667 172.5,42.5C 178.5,42.5 184.5,42.5 190.5,42.5C 190.5,45.1667 190.5,47.8333 190.5,50.5C 180.5,50.5 170.5,50.5 160.5,50.5C 160.5,37.8333 160.5,25.1667 160.5,12.5 Z"/></g>
<g><path style="opacity:1" fill="#0c0c0c" d="M 232.5,12.5 C 236.5,12.5 240.5,12.5 244.5,12.5C 244.667,24.8378 244.5,37.1712 244,49.5C 240.27,50.4601 236.437,50.7935 232.5,50.5C 232.5,37.8333 232.5,25.1667 232.5,12.5 Z"/></g>
<g><path style="opacity:1" fill="#fff8f4" d="M 63.5,24.5 C 69.2422,20.3611 71.7422,22.0277 71,29.5C 68.4303,28.991 66.0969,27.991 64,26.5C 64.5098,28.3801 64.3431,30.2134 63.5,32C 71.5669,28.7133 75.0669,31.5466 74,40.5C 71.9171,45.9345 69.0838,46.6012 65.5,42.5C 66.4279,41.2322 66.5946,39.8989 66,38.5C 65.0239,40.8872 63.1906,42.0539 60.5,42C 63.8609,45.1919 67.8609,46.6919 72.5,46.5C 73.1325,52.2098 70.7992,54.2098 65.5,52.5C 63.5511,49.9332 61.7178,47.2665 60,44.5C 59.7674,46.7801 58.934,48.7801 57.5,50.5C 57.6667,50.8333 57.8333,51.1667 58,51.5C 59.6667,48.8333 61.3333,48.8333 63,51.5C 64.6277,58.225 62.6277,59.8917 57,56.5C 56.313,59.4256 54.4797,60.7589 51.5,60.5C 50.5416,60.0472 49.7083,59.3805 49,58.5C 48.3333,54.1667 48.3333,49.8333 49,45.5C 50.6444,42.0491 52.8111,41.7158 55.5,44.5C 55.8333,44.1667 56.1667,43.8333 56.5,43.5C 54.5614,41.8778 54.228,40.0445 55.5,38C 55.1667,37.8333 54.8333,37.6667 54.5,37.5C 52.7449,41.6998 50.9116,42.0331 49,38.5C 48.3333,33.1667 48.3333,27.8333 49,22.5C 49.3076,21.6919 49.8076,21.0253 50.5,20.5C 53.407,21.2475 56.2403,21.5808 59,21.5C 59.8201,23.728 59.4868,25.728 58,27.5C 56.8668,25.7888 55.3668,25.2888 53.5,26C 56.8961,27.71 58.3961,30.5433 58,34.5C 59.362,31.3533 60.1954,28.0199 60.5,24.5C 61.5,24.5 62.5,24.5 63.5,24.5 Z"/></g>
<g><path style="opacity:1" fill="#f9f9f9" d="M 134.5,20.5 C 137.187,20.3359 139.854,20.5026 142.5,21C 144.602,22.7328 144.935,24.7328 143.5,27C 140.518,27.498 137.518,27.6646 134.5,27.5C 134.5,25.1667 134.5,22.8333 134.5,20.5 Z"/></g>
<g><path style="opacity:1" fill="#e9e9e9" d="M 97.5,20.5 C 104.468,18.9712 107.135,21.4712 105.5,28C 102.518,28.498 99.5184,28.6646 96.5,28.5C 96.2786,25.7212 96.612,23.0545 97.5,20.5 Z"/></g>
<g><path style="opacity:1" fill="#f79050" d="M 63.5,9.5 C 63.5,9.83333 63.5,10.1667 63.5,10.5C 60.495,10.253 57.995,11.253 56,13.5C 56.1953,11.8739 56.1953,10.2072 56,8.5C 54,5.83333 52,5.83333 50,8.5C 49.2483,11.8936 49.4149,15.227 50.5,18.5C 55.0328,20.5801 58.0328,19.2468 59.5,14.5C 59.8797,16.0207 60.0464,17.6874 60,19.5C 60.4983,21.5444 61.665,22.8777 63.5,23.5C 63.5,23.8333 63.5,24.1667 63.5,24.5C 62.5,24.5 61.5,24.5 60.5,24.5C 60.1954,28.0199 59.362,31.3533 58,34.5C 58.3961,30.5433 56.8961,27.71 53.5,26C 55.3668,25.2888 56.8668,25.7888 58,27.5C 59.4868,25.728 59.8201,23.728 59,21.5C 56.2403,21.5808 53.407,21.2475 50.5,20.5C 49.8076,21.0253 49.3076,21.6919 49,22.5C 48.3333,27.8333 48.3333,33.1667 49,38.5C 50.9116,42.0331 52.7449,41.6998 54.5,37.5C 54.8333,37.6667 55.1667,37.8333 55.5,38C 54.228,40.0445 54.5614,41.8778 56.5,43.5C 56.1667,43.8333 55.8333,44.1667 55.5,44.5C 52.8111,41.7158 50.6444,42.0491 49,45.5C 48.3333,49.8333 48.3333,54.1667 49,58.5C 49.7083,59.3805 50.5416,60.0472 51.5,60.5C 51.5,61.1667 51.1667,61.5 50.5,61.5C 49.5416,61.0472 48.7083,60.3805 48,59.5C 47.8333,57 47.6667,54.5 47.5,52C 47.2861,48.4309 47.9527,45.0976 49.5,42C 49,41.5 48.5,41 48,40.5C 47.8333,37.1667 47.6667,33.8333 47.5,30.5C 48.464,23.1449 48.6307,15.8116 48,8.5C 51.2081,4.55367 54.3747,4.55367 57.5,8.5C 59.396,9.46557 61.396,9.7989 63.5,9.5 Z"/></g>
<g><path style="opacity:1" fill="#fbb15f" d="M 63.5,9.5 C 67.6318,11.9042 69.6318,15.5709 69.5,20.5C 73.0894,22.6711 74.0894,25.6711 72.5,29.5C 77.3957,34.3736 77.729,39.5403 73.5,45C 75.1441,51.7003 72.4774,55.367 65.5,56C 64.8333,57 64.1667,58 63.5,59C 59.9127,60.0452 56.4127,61.2118 53,62.5C 51.9302,62.472 51.0968,62.1386 50.5,61.5C 51.1667,61.5 51.5,61.1667 51.5,60.5C 54.4797,60.7589 56.313,59.4256 57,56.5C 62.6277,59.8917 64.6277,58.225 63,51.5C 61.3333,48.8333 59.6667,48.8333 58,51.5C 57.8333,51.1667 57.6667,50.8333 57.5,50.5C 58.934,48.7801 59.7674,46.7801 60,44.5C 61.7178,47.2665 63.5511,49.9332 65.5,52.5C 70.7992,54.2098 73.1325,52.2098 72.5,46.5C 67.8609,46.6919 63.8609,45.1919 60.5,42C 63.1906,42.0539 65.0239,40.8872 66,38.5C 66.5946,39.8989 66.4279,41.2322 65.5,42.5C 69.0838,46.6012 71.9171,45.9345 74,40.5C 75.0669,31.5466 71.5669,28.7133 63.5,32C 64.3431,30.2134 64.5098,28.3801 64,26.5C 66.0969,27.991 68.4303,28.991 71,29.5C 71.7422,22.0277 69.2422,20.3611 63.5,24.5C 63.5,24.1667 63.5,23.8333 63.5,23.5C 67.5,19.1667 67.5,14.8333 63.5,10.5C 63.5,10.1667 63.5,9.83333 63.5,9.5 Z"/></g>
<g><path style="opacity:1" fill="#f46f3c" d="M 36.5,40.5 C 38.7793,43.4422 41.7793,45.1089 45.5,45.5C 45.5,50.8333 45.5,56.1667 45.5,61.5C 44.1667,61.5 42.8333,61.5 41.5,61.5C 41.6383,57.3065 39.6383,54.9732 35.5,54.5C 36.441,49.9296 36.7744,45.263 36.5,40.5 Z"/></g>
<g><path style="opacity:1" fill="#f79d73" d="M 45.5,45.5 C 46.4889,50.9753 46.8222,56.642 46.5,62.5C 44.5853,62.7845 42.9187,62.4511 41.5,61.5C 42.8333,61.5 44.1667,61.5 45.5,61.5C 45.5,56.1667 45.5,50.8333 45.5,45.5 Z"/></g>
</svg>
