<?xml version="1.0" standalone="no"?>
<!DOCTYPE svg PUBLIC "-//W3C//DTD SVG 20010904//EN"
 "http://www.w3.org/TR/2001/REC-SVG-20010904/DTD/svg10.dtd">
<svg version="1.0" xmlns="http://www.w3.org/2000/svg"
 width="90.000000pt" height="40.000000pt" viewBox="0 0 90.000000 40.000000"
 preserveAspectRatio="xMidYMid meet">

<g transform="translate(0.000000,40.000000) scale(0.100000,-0.100000)"
fill="#000000" stroke="none">
<path d="M210 180 c0 -53 2 -60 20 -60 13 0 20 7 20 18 0 12 11 21 32 27 65
19 44 75 -28 75 l-44 0 0 -60z m70 25 c0 -8 -7 -15 -15 -15 -8 0 -15 7 -15 15
0 8 7 15 15 15 8 0 15 -7 15 -15z"/>
<path d="M340 180 c0 -47 3 -60 15 -60 8 0 15 9 15 19 0 31 19 35 30 7 13 -35
45 -36 36 -1 -4 14 -1 33 6 44 19 30 -5 51 -58 51 l-44 0 0 -60z m70 25 c0 -8
-9 -15 -20 -15 -11 0 -20 7 -20 15 0 8 9 15 20 15 11 0 20 -7 20 -15z"/>
<path d="M470 180 l0 -60 45 0 c25 0 45 5 45 10 0 6 -13 10 -30 10 -34 0 -41
19 -10 27 26 7 25 19 -2 28 -21 6 -21 7 10 16 46 14 40 29 -13 29 l-45 0 0
-60z"/>
<path d="M590 221 c-26 -49 -4 -101 43 -101 31 0 57 15 57 32 0 13 -28 9 -32
-4 -8 -23 -38 1 -38 31 0 36 13 46 39 29 25 -15 39 -4 21 17 -18 22 -77 19
-90 -4z"/>
<path d="M710 180 c0 -47 3 -60 15 -60 12 0 15 13 15 60 0 47 -3 60 -15 60
-12 0 -15 -13 -15 -60z"/>
<path d="M777 234 c-4 -4 -7 -18 -7 -31 0 -18 8 -27 30 -34 39 -14 39 -31 0
-27 -16 2 -29 -1 -30 -7 0 -5 19 -10 43 -10 39 0 42 2 45 28 3 23 -2 29 -27
38 -37 13 -41 32 -6 27 13 -2 25 2 27 7 3 12 -64 20 -75 9z"/>
<path d="M50 215 c0 -7 -8 -18 -17 -24 -15 -8 -16 -12 -5 -22 6 -7 12 -21 12
-31 0 -10 7 -18 15 -18 17 0 20 23 5 51 -8 13 -7 25 0 39 7 14 7 20 0 20 -5 0
-10 -7 -10 -15z"/>
</g>
</svg>
